# xmcd
# 
# Track frame offsets:
#     150
#     11083
#     22716
#     36241
#     48543
#     69925
#     83236
#     94214
#     104641
#     119459
#     129808
#     145277
#     156212
#     168657
#     181465
#     193253
#     209246
#     221731
#     239770
#     256051
# 
# Disc length: 3591
# 
# Revision: 0
# Processed by: cddbd v1.5.2PL0 Copyright (c) Steve Scherf et al.
# Submitted via: fre:ac v1.0.17
# 
DISCID=2c0e0514
DTITLE=Various Artist - Big Country 3 - Disc 2
DYEAR=2011
DGENRE=Country
TTITLE0=Glenn Campbell - Try A Little Kindness
TTITLE1=Moe Bandy and Joe Stampley - Just Good Ol' Boys
TTITLE2=Johnny Cash and June Carter Cash - If I Were a Carpenter (And you wre a lady)
TTITLE3=Patsy Cline Ft. The Jordanaires - Crazy
TTITLE4=John Denver - Back Home Again
TTITLE5=Tammy Wynette - D-I-V-O-R-C-E
TTITLE6=Conway Twitty - Hello Darlin'
TTITLE7=Jim Reeves - He'll Have To Go
TTITLE8=George Jones - He Stopped Loving Her Today
TTITLE9=Connie Smith - Once A Day
TTITLE10=Wayne Newton - Daddy Don't You Walk So Fast
TTITLE11=Tanya Tucker - Would You Lay With Me (In A Field Of Stone)
TTITLE12=Charlie Rich - A Very Special Love Song
TTITLE13=Eddie Rabbitt - Every Which Way But Loose
TTITLE14=Wanda Jackson - Right Or Wrong
TTITLE15=Lorrie Morgan - Five Minutes
TTITLE16=Hank Snow - Hello Love
TTITLE17=Don Williams - I Believe In You
TTITLE18=Ronnie Milsap - It Was Almost Like A Song
TTITLE19=Lynn Anderson - Top Of The World
EXTD=
EXTT0=
EXTT1=
EXTT2=
EXTT3=
EXTT4=
EXTT5=
EXTT6=
EXTT7=
EXTT8=
EXTT9=
EXTT10=
EXTT11=
EXTT12=
EXTT13=
EXTT14=
EXTT15=
EXTT16=
EXTT17=
EXTT18=
EXTT19=
PLAYORDER=
